<svg width="59" height="59" viewBox="0 0 59 59" fill="none" xmlns="http://www.w3.org/2000/svg">
<g clip-path="url(#clip0_33_138)">
<path d="M29.2003 5.95193e-07C23.4456 -0.00116315 17.8198 1.70424 13.0344 4.90054C8.24893 8.09684 4.51883 12.6405 2.31579 17.9568C0.112751 23.2731 -0.464268 29.1233 0.657707 34.7676C1.77968 40.4119 4.55025 45.5967 8.61904 49.6663C12.6878 53.7359 17.8721 56.5075 23.5161 57.6306C29.1602 58.7538 35.0105 58.1779 40.3273 55.976C45.644 53.774 50.1884 50.0448 53.3857 45.26C56.583 40.4752 58.2895 34.8498 58.2895 29.0951C58.2895 21.3796 55.2249 13.98 49.7698 8.52383C44.3147 3.06761 36.9158 0.00156085 29.2003 5.95193e-07ZM29.2003 55.5424C23.9624 55.5424 18.8423 53.9889 14.4875 51.0782C10.1328 48.1676 6.73924 44.0308 4.73614 39.1911C2.73304 34.3514 2.21043 29.0262 3.23443 23.8894C4.25843 18.7526 6.78303 14.035 10.4888 10.3333C14.1946 6.63164 18.9151 4.11229 24.053 3.09401C29.1909 2.07572 34.5155 2.60425 39.353 4.61272C44.1904 6.6212 48.3235 10.0194 51.2293 14.3773C54.1351 18.7353 55.6829 23.8572 55.6771 29.0951C55.6693 36.112 52.8764 42.839 47.9119 47.798C42.9473 52.757 36.2173 55.5425 29.2003 55.5424ZM28.5649 16.9628C32.4128 16.9628 32.8659 16.9628 34.3898 17.0511C35.3017 17.0637 36.2049 17.2308 37.061 17.5453C37.6835 17.7837 38.2489 18.1506 38.7203 18.6219C39.1917 19.0933 39.5585 19.6587 39.7969 20.2812C40.1163 21.1341 40.2855 22.0359 40.297 22.9466C40.3618 24.4646 40.3794 24.9176 40.3794 28.7656C40.3794 32.6135 40.3794 33.0725 40.297 34.5905C40.2869 35.5051 40.1177 36.411 39.7969 37.2676C39.5671 37.8944 39.1991 38.4615 38.7202 38.9268C38.2534 39.4052 37.6869 39.7748 37.061 40.0094C36.2049 40.3238 35.3017 40.491 34.3898 40.5036C32.8659 40.5742 32.4128 40.586 28.5649 40.586C24.7169 40.586 24.258 40.586 22.74 40.5036C21.8261 40.4908 20.921 40.3237 20.0629 40.0094C19.44 39.7751 18.8757 39.4076 18.4096 38.9327C17.9307 38.4674 17.5627 37.9003 17.3328 37.2735C17.0121 36.4169 16.8429 35.511 16.8327 34.5964C16.7621 33.0784 16.7503 32.6194 16.7503 28.7715C16.7503 24.9235 16.7503 24.4704 16.8327 22.9524C16.8429 22.0378 17.0121 21.1319 17.3328 20.2753C17.5627 19.6485 17.9307 19.0814 18.4096 18.6161C18.8741 18.1392 19.4388 17.7715 20.0629 17.5394C20.9221 17.2311 21.8272 17.07 22.74 17.0628C24.2639 16.9922 24.7169 16.9746 28.5649 16.9746M28.5649 14.3798C24.6522 14.3798 24.158 14.3798 22.6223 14.4681C21.4276 14.4906 20.2455 14.7174 19.1274 15.1388C18.1675 15.4943 17.2977 16.0568 16.5797 16.7863C15.8467 17.5071 15.2786 18.3783 14.9146 19.3398C14.4935 20.4703 14.2667 21.6639 14.2439 22.8701C14.1733 24.4057 14.1615 24.8941 14.1615 28.8068C14.1615 32.7194 14.1615 33.2137 14.2439 34.7493C14.2687 35.9433 14.4935 37.1246 14.9087 38.2443C15.2789 39.1971 15.8486 40.0598 16.5797 40.7743C17.2982 41.5087 18.1702 42.0753 19.1332 42.4335C20.2514 42.8549 21.4335 43.0818 22.6282 43.1042C24.1638 43.1748 24.6581 43.1925 28.5708 43.1925C32.4834 43.1925 32.9718 43.1925 34.5133 43.1042C35.7079 43.0805 36.8898 42.8537 38.0083 42.4335C38.9706 42.0739 39.8423 41.5075 40.5618 40.7743C41.2886 40.0586 41.8543 39.1961 42.221 38.2443C42.6427 37.1142 42.8676 35.9201 42.8859 34.714C42.9565 33.1784 42.9741 32.69 42.9741 28.7715C42.9741 24.8529 42.9741 24.3704 42.8859 22.8348C42.8676 21.6287 42.6427 20.4346 42.221 19.3045C41.857 18.343 41.289 17.4718 40.5559 16.751C39.8364 16.0177 38.9647 15.4513 38.0024 15.0918C36.8839 14.6716 35.702 14.4447 34.5074 14.421C32.9659 14.3504 32.4776 14.3328 28.5649 14.3328M28.5649 21.3462C27.1035 21.352 25.6765 21.7903 24.4638 22.6059C23.2511 23.4214 22.307 24.5777 21.7504 25.929C21.1938 27.2802 21.0497 28.766 21.3363 30.1991C21.6228 31.6321 22.3272 32.9483 23.3605 33.9817C24.3939 35.0151 25.7101 35.7194 27.1431 36.0059C28.5762 36.2925 30.062 36.1484 31.4133 35.5918C32.7645 35.0352 33.9208 34.0911 34.7364 32.8784C35.5519 31.6657 35.9902 30.2387 35.996 28.7773C35.996 27.8031 35.8036 26.8385 35.4297 25.9389C35.0558 25.0393 34.5079 24.2224 33.8174 23.5352C33.1269 22.8479 32.3074 22.3039 31.406 21.9343C30.5046 21.5647 29.5391 21.3768 28.5649 21.3815M28.5649 33.5844C27.6139 33.5855 26.6839 33.3046 25.8926 32.7771C25.1014 32.2496 24.4843 31.4992 24.1196 30.621C23.7548 29.7427 23.6588 28.776 23.8436 27.8432C24.0284 26.9103 24.4858 26.0532 25.1578 25.3804C25.8299 24.7075 26.6864 24.2491 27.619 24.0631C28.5517 23.8772 29.5185 23.972 30.3972 24.3357C31.2759 24.6993 32.027 25.3155 32.5555 26.1061C33.0839 26.8967 33.366 27.8264 33.366 28.7773C33.366 30.0512 32.8604 31.273 31.9601 32.1743C31.0599 33.0757 29.8388 33.5828 28.5649 33.5844ZM37.9789 21.0873C37.9789 20.7452 37.8774 20.4107 37.6873 20.1263C37.4972 19.8418 37.2271 19.6201 36.911 19.4892C36.5949 19.3582 36.2471 19.324 35.9116 19.3907C35.576 19.4575 35.2678 19.6222 35.0259 19.8641C34.7839 20.1061 34.6192 20.4143 34.5524 20.7498C34.4857 21.0854 34.52 21.4332 34.6509 21.7493C34.7818 22.0654 35.0035 22.3355 35.288 22.5256C35.5725 22.7157 35.9069 22.8171 36.249 22.8171C36.7078 22.8171 37.1478 22.6349 37.4722 22.3105C37.7966 21.9861 37.9789 21.5461 37.9789 21.0873Z" fill="white"/>
</g>
<defs>
<clipPath id="clip0_33_138">
<rect width="58.1842" height="58.1842" fill="white" transform="translate(0.105255)"/>
</clipPath>
</defs>
</svg>
