<svg width="59" height="59" viewBox="0 0 59 59" fill="none" xmlns="http://www.w3.org/2000/svg">
<g clip-path="url(#clip0_33_137)">
<path d="M29.5951 5.95193e-07C23.8403 -0.00116315 18.2145 1.70424 13.4291 4.90054C8.64367 8.09684 4.91357 12.6405 2.71053 17.9568C0.507488 23.2731 -0.0695306 29.1233 1.05244 34.7676C2.17442 40.4119 4.94499 45.5967 9.01377 49.6663C13.0826 53.7359 18.2668 56.5075 23.9108 57.6306C29.5549 58.7538 35.4052 58.1779 40.722 55.976C46.0388 53.774 50.5832 50.0448 53.7804 45.26C56.9777 40.4752 58.6842 34.8498 58.6842 29.0951C58.6842 21.3796 55.6197 13.98 50.1646 8.52383C44.7095 3.06761 37.3105 0.00156085 29.5951 5.95193e-07V5.95193e-07ZM29.5951 55.5424C24.3572 55.5424 19.237 53.9889 14.8823 51.0782C10.5276 48.1676 7.13398 44.0308 5.13088 39.1911C3.12778 34.3514 2.60517 29.0262 3.62917 23.8894C4.65317 18.7526 7.17776 14.035 10.8836 10.3333C14.5893 6.63164 19.3098 4.11229 24.4477 3.09401C29.5857 2.07572 34.9102 2.60425 39.7477 4.61272C44.5852 6.6212 48.7183 10.0194 51.624 14.3773C54.5298 18.7353 56.0777 23.8572 56.0719 29.0951C56.0641 36.112 53.2711 42.839 48.3066 47.798C43.3421 52.757 36.612 55.5425 29.5951 55.5424Z" fill="white"/>
<path d="M16.2978 22.4229H22.2227V41.4568H16.2978V22.4229ZM19.2397 12.956C19.9195 12.956 20.5841 13.1577 21.1493 13.5355C21.7145 13.9133 22.1549 14.4503 22.4148 15.0785C22.6747 15.7067 22.7424 16.3979 22.6093 17.0646C22.4763 17.7313 22.1484 18.3435 21.6673 18.8239C21.1862 19.3042 20.5734 19.631 19.9064 19.7629C19.2395 19.8948 18.5484 19.8259 17.9207 19.5649C17.2929 19.304 16.7567 18.8626 16.3798 18.2968C16.003 17.731 15.8024 17.066 15.8036 16.3862C15.802 15.9323 15.8906 15.4825 16.0641 15.0631C16.2376 14.6436 16.4927 14.2627 16.8145 13.9426C17.1363 13.6224 17.5184 13.3693 17.9388 13.1979C18.3591 13.0266 18.8093 12.9403 19.2632 12.9442M25.9354 41.4568H31.8191V32.0428C31.8191 29.5599 32.2898 27.1593 35.3494 27.1593C38.4089 27.1593 38.4207 30.0012 38.4207 32.2076V41.4568H44.3044V31.0132C44.3044 25.8884 43.1983 21.9463 37.2086 21.9463C36.0965 21.9171 34.9969 22.1873 34.025 22.7286C33.053 23.27 32.2444 24.0626 31.6838 25.0235H31.6014V22.4229H25.9354V41.4568Z" fill="white"/>
</g>
<defs>
<clipPath id="clip0_33_137">
<rect width="58.1842" height="58.1842" fill="white" transform="translate(0.5)"/>
</clipPath>
</defs>
</svg>
