<svg width="59" height="59" viewBox="0 0 59 59" fill="none" xmlns="http://www.w3.org/2000/svg">
<g clip-path="url(#clip0_33_139)">
<path d="M29.8056 5.95193e-07C24.0509 -0.00116315 18.4251 1.70424 13.6396 4.90054C8.85419 8.09684 5.12408 12.6405 2.92104 17.9568C0.718006 23.2731 0.140987 29.1233 1.26296 34.7676C2.38494 40.4119 5.15551 45.5967 9.22429 49.6663C13.2931 53.7359 18.4773 56.5075 24.1214 57.6306C29.7654 58.7538 35.6158 58.1779 40.9325 55.976C46.2493 53.774 50.7937 50.0448 53.9909 45.26C57.1882 40.4752 58.8948 34.8498 58.8948 29.0951C58.8948 21.3796 55.8302 13.98 50.3751 8.52383C44.92 3.06761 37.521 0.00156085 29.8056 5.95193e-07ZM29.8056 55.5424C24.5677 55.5424 19.4475 53.9889 15.0928 51.0782C10.7381 48.1676 7.34449 44.0308 5.3414 39.1911C3.3383 34.3514 2.81569 29.0262 3.83969 23.8894C4.86369 18.7526 7.38828 14.035 11.0941 10.3333C14.7999 6.63164 19.5203 4.11229 24.6583 3.09401C29.7962 2.07572 35.1207 2.60425 39.9582 4.61272C44.7957 6.6212 48.9288 10.0194 51.8345 14.3773C54.7403 18.7353 56.2882 23.8572 56.2824 29.0951C56.2746 36.112 53.4816 42.839 48.5171 47.798C43.5526 52.757 36.8226 55.5425 29.8056 55.5424Z" fill="white"/>
<path d="M17.185 17.8369C17.185 14.1599 20.1658 11.1791 23.8428 11.1791H35.2669C38.9439 11.1791 41.9248 14.1599 41.9248 17.8369C41.9248 20.1652 40.7296 22.2144 38.9192 23.4044C40.7296 24.5944 41.9248 26.6436 41.9248 28.9719C41.9248 32.649 38.9439 35.6298 35.2669 35.6298H35.1223C33.3985 35.6298 31.8277 34.9747 30.6453 33.8998V40.0343C30.6453 43.7604 27.5865 46.7645 23.8787 46.7645C20.2108 46.7645 17.185 43.7928 17.185 40.1066C17.185 37.7784 18.3801 35.7293 20.1903 34.5393C18.3799 33.3493 17.185 31.3001 17.185 28.9719C17.185 26.6436 18.3801 24.5944 20.1904 23.4044C18.3802 22.2144 17.185 20.1652 17.185 17.8369ZM28.4644 24.4949H23.8428C21.3702 24.4949 19.3658 26.4994 19.3658 28.9719C19.3658 31.435 21.3548 33.4334 23.8142 33.4489L23.8428 33.4488H28.4644V24.4949ZM30.6453 28.9719C30.6453 31.4445 32.6497 33.4489 35.1223 33.4489H35.2669C37.7395 33.4489 39.7439 31.4445 39.7439 28.9719C39.7439 26.4994 37.7395 24.4949 35.2669 24.4949H35.1223C32.6497 24.4949 30.6453 26.4994 30.6453 28.9719ZM23.8428 35.6298L23.8142 35.6297C21.3548 35.6451 19.3658 37.6436 19.3658 40.1066C19.3658 42.5701 21.397 44.5836 23.8787 44.5836C26.4004 44.5836 28.4644 42.5378 28.4644 40.0343V35.6298H23.8428V35.6298ZM23.8428 13.3599C21.3702 13.3599 19.3658 15.3644 19.3658 17.8369C19.3658 20.3095 21.3703 22.3139 23.8428 22.3139H28.4644V13.3599H23.8428V13.3599ZM30.6453 22.3139H35.2669C37.7395 22.3139 39.7439 20.3095 39.7439 17.8369C39.7439 15.3643 37.7395 13.3599 35.2669 13.3599H30.6453V22.3139Z" fill="white"/>
</g>
<defs>
<clipPath id="clip0_33_139">
<rect width="58.1842" height="58.1842" fill="white" transform="translate(0.71051)"/>
</clipPath>
</defs>
</svg>
