<svg width="59" height="59" viewBox="0 0 59 59" fill="none" xmlns="http://www.w3.org/2000/svg">
<g clip-path="url(#clip0_33_140)">
<path d="M29.4108 5.95193e-07C23.6561 -0.00116315 18.0303 1.70424 13.2449 4.90054C8.45944 8.09684 4.72934 12.6405 2.5263 17.9568C0.323261 23.2731 -0.253758 29.1233 0.868217 34.7676C1.99019 40.4119 4.76076 45.5967 8.82955 49.6663C12.8983 53.7359 18.0826 56.5075 23.7266 57.6306C29.3707 58.7538 35.221 58.1779 40.5378 55.976C45.8546 53.774 50.3989 50.0448 53.5962 45.26C56.7935 40.4752 58.5 34.8498 58.5 29.0951C58.5 21.3796 55.4355 13.98 49.9803 8.52383C44.5252 3.06761 37.1263 0.00156085 29.4108 5.95193e-07ZM29.4108 55.5424C24.173 55.5424 19.0528 53.9889 14.6981 51.0782C10.3433 48.1676 6.94975 44.0308 4.94665 39.1911C2.94355 34.3514 2.42094 29.0262 3.44494 23.8894C4.46894 18.7526 6.99354 14.035 10.6993 10.3333C14.4051 6.63164 19.1256 4.11229 24.2635 3.09401C29.4014 2.07572 34.726 2.60425 39.5635 4.61272C44.401 6.6212 48.534 10.0194 51.4398 14.3773C54.3456 18.7353 55.8934 23.8572 55.8876 29.0951C55.8798 36.112 53.0869 42.839 48.1224 47.798C43.1578 52.757 36.4278 55.5425 29.4108 55.5424Z" fill="white"/>
</g>
<path d="M45.216 15.2977H13.0026C12.2906 15.2977 11.6078 15.5806 11.1044 16.084C10.6009 16.5874 10.3181 17.2702 10.3181 17.9822V39.4578C10.3181 40.1698 10.6009 40.8526 11.1044 41.356C11.6078 41.8594 12.2906 42.1423 13.0026 42.1423H45.216C45.928 42.1423 46.6108 41.8594 47.1142 41.356C47.6176 40.8526 47.9005 40.1698 47.9005 39.4578V17.9822C47.9005 17.2702 47.6176 16.5874 47.1142 16.084C46.6108 15.5806 45.928 15.2977 45.216 15.2977V15.2977ZM42.2631 17.9822L29.1093 27.0825L15.9555 17.9822H42.2631ZM13.0026 39.4578V19.2036L28.3442 29.8206C28.5689 29.9765 28.8358 30.06 29.1093 30.06C29.3827 30.06 29.6497 29.9765 29.8744 29.8206L45.216 19.2036V39.4578H13.0026Z" fill="white"/>
<defs>
<clipPath id="clip0_33_140">
<rect width="58.1842" height="58.1842" fill="white" transform="translate(0.315765)"/>
</clipPath>
</defs>
</svg>
